0
SECTION
2
HEADER
9
$INSUNITS
70
4
9
$ACADVER
1
AC1014
9
$HANDSEED
5
FFFF
0
ENDSEC
0
SECTION
2
TABLES
0
TABLE
2
VPORT
5
8
100
AcDbSymbolTable
0
ENDTAB
0
TABLE
2
LTYPE
5
5
100
AcDbSymbolTable
0
LTYPE
5
14
100
AcDbSymbolTableRecord
100
AcDbLinetypeTableRecord
2
BYBLOCK
70
0
0
LTYPE
5
15
100
AcDbSymbolTableRecord
100
AcDbLinetypeTableRecord
2
BYLAYER
70
0
0
ENDTAB
0
TABLE
2
LAYER
5
2
100
AcDbSymbolTable
70
2
0
LAYER
5
50
100
AcDbSymbolTableRecord
100
AcDbLayerTableRecord
2
0
70
0
6
CONTINUOUS
0
ENDTAB
0
TABLE
2
STYLE
5
3
100
AcDbSymbolTable
70
1
0
STYLE
5
11
100
AcDbSymbolTableRecord
100
AcDbTextStyleTableRecord
2
STANDARD
70
0
0
ENDTAB
0
TABLE
2
VIEW
5
6
100
AcDbSymbolTable
70
0
0
ENDTAB
0
TABLE
2
UCS
5
7
100
AcDbSymbolTable
70
0
0
ENDTAB
0
TABLE
2
APPID
5
9
100
AcDbSymbolTable
70
2
0
APPID
5
12
100
AcDbSymbolTableRecord
100
AcDbRegAppTableRecord
2
ACAD
70
0
0
ENDTAB
0
TABLE
2
DIMSTYLE
5
A
100
AcDbSymbolTable
70
1
0
ENDTAB
0
TABLE
2
BLOCK_RECORD
5
1
100
AcDbSymbolTable
70
1
0
BLOCK_RECORD
5
1F
100
AcDbSymbolTableRecord
100
AcDbBlockTableRecord
2
*MODEL_SPACE
0
BLOCK_RECORD
5
1B
100
AcDbSymbolTableRecord
100
AcDbBlockTableRecord
2
*PAPER_SPACE
0
ENDTAB
0
ENDSEC
0
SECTION
2
BLOCKS
0
BLOCK
5
20
100
AcDbEntity
100
AcDbBlockBegin
2
*MODEL_SPACE
0
ENDBLK
5
21
100
AcDbEntity
100
AcDbBlockEnd
0
BLOCK
5
1C
100
AcDbEntity
100
AcDbBlockBegin
2
*PAPER_SPACE
0
ENDBLK
5
1D
100
AcDbEntity
100
AcDbBlockEnd
0
ENDSEC
0
SECTION
2
ENTITIES
0
SPLINE
5
100
100
AcDbEntity
8
0
100
AcDbSpline
70
0
71
3
72
17
73
13
74
0
42
0.000000001
43
0.0000000001
44
0.0000000001
40
0
40
0
40
0
40
0
40
1
40
1
40
1
40
2
40
2
40
2
40
3
40
3
40
3
40
4
40
4
40
4
40
4
10
51.020578781923227
20
-216.5901790073745
30
0
10
51.020578781952743
20
-215.94198513502238
30
0
10
50.494869350942736
20
-215.41627570396687
30
0
10
49.84649908970691
20
-215.41627570393604
30
0
10
49.198834384007988
20
-215.41627570390776
30
0
10
48.673092860205067
20
-215.94198513491588
30
0
10
48.673092860175551
20
-216.59017900726798
30
0
10
48.673092860146028
20
-217.23854926850447
30
0
10
49.198834383902735
20
-217.76443508844568
30
0
10
49.846499089601657
20
-217.76443508847396
30
0
10
50.49486935083813
20
-217.7644350885048
30
0
10
51.020578781894997
20
-217.23854926861097
30
0
10
51.020578781923227
20
-216.5901790073745
30
0
0
SPLINE
5
101
100
AcDbEntity
8
0
100
AcDbSpline
70
0
71
3
72
17
73
13
74
0
42
0.000000001
43
0.0000000001
44
0.0000000001
40
0
40
0
40
0
40
0
40
1
40
1
40
1
40
2
40
2
40
2
40
3
40
3
40
3
40
4
40
4
40
4
40
4
10
51.020578781923227
20
-178.59033280339554
30
0
10
51.020578781952103
20
-177.94213893104211
30
0
10
50.494869350943368
20
-177.41642949998649
30
0
10
49.846499089707535
20
-177.41642949995827
30
0
10
49.19883438400862
20
-177.41642949992871
30
0
10
48.673092860206346
20
-177.94213893093811
30
0
10
48.673092860175551
20
-178.59033280329021
30
0
10
48.673092860147314
20
-179.2387030645267
30
0
10
49.198834383902735
20
-179.76458888446658
30
0
10
49.846499089602297
20
-179.76458888449622
30
0
10
50.494869350838769
20
-179.76458888452441
30
0
10
51.020578781894997
20
-179.23870306463192
30
0
10
51.020578781923227
20
-178.59033280339554
30
0
0
SPLINE
5
102
100
AcDbEntity
8
0
100
AcDbSpline
70
0
71
3
72
17
73
13
74
0
42
0.000000001
43
0.0000000001
44
0.0000000001
40
0
40
0
40
0
40
0
40
1
40
1
40
1
40
2
40
2
40
2
40
3
40
3
40
3
40
4
40
4
40
4
40
4
10
26.420726752813167
20
-233.79025801335956
30
0
10
26.420726752842697
20
-233.14206414100744
30
0
10
25.895017321832672
20
-232.61635470995179
30
0
10
25.24664706059685
20
-232.6163547099224
30
0
10
24.598982354897924
20
-232.61635470989285
30
0
10
24.073240831095021
20
-233.14206414090228
30
0
10
24.07324083106549
20
-233.79025801325434
30
0
10
24.073240831036617
20
-234.43862827449072
30
0
10
24.598982354793325
20
-234.96451409443074
30
0
10
25.246647060491604
20
-234.96451409446024
30
0
10
25.895017321728076
20
-234.9645140944898
30
0
10
26.420726752784944
20
-234.43862827459606
30
0
10
26.420726752813167
20
-233.79025801335956
30
0
0
SPLINE
5
103
100
AcDbEntity
8
0
100
AcDbSpline
70
0
71
3
72
17
73
13
74
0
42
0.000000001
43
0.0000000001
44
0.0000000001
40
0
40
0
40
0
40
0
40
1
40
1
40
1
40
2
40
2
40
2
40
3
40
3
40
3
40
4
40
4
40
4
40
4
10
127.22041482172507
20
-180.79022603860676
30
0
10
127.22041482175467
20
-180.14203216625464
30
0
10
126.69470539074588
20
-179.61632273519771
30
0
10
126.04633512951008
20
-179.61632273516955
30
0
10
125.39867042381118
20
-179.61632273513996
30
0
10
124.87292890000697
20
-180.14203216614933
30
0
10
124.87292889997805
20
-180.79022603850146
30
0
10
124.87292889994917
20
-181.43859629973792
30
0
10
125.39867042370588
20
-181.96448211967794
30
0
10
126.04633512940356
20
-181.96448211970616
30
0
10
126.69470539064196
20
-181.96448211973564
30
0
10
127.22041482169688
20
-181.43859629984317
30
0
10
127.22041482172507
20
-180.79022603860676
30
0
0
SPLINE
5
104
100
AcDbEntity
8
0
100
AcDbSpline
70
0
71
3
72
17
73
13
74
0
42
0.000000001
43
0.0000000001
44
0.0000000001
40
0
40
0
40
0
40
0
40
1
40
1
40
1
40
2
40
2
40
2
40
3
40
3
40
3
40
4
40
4
40
4
40
4
10
127.22041482172574
20
-218.99021587443281
30
0
10
127.22041482175467
20
-218.34202200208068
30
0
10
126.69470539074588
20
-217.81631257102384
30
0
10
126.04633512950947
20
-217.81631257099428
30
0
10
125.39867042381047
20
-217.81631257096484
30
0
10
124.87292890000828
20
-218.3420220019741
30
0
10
124.87292889997805
20
-218.99021587432622
30
0
10
124.87292889994988
20
-219.63858613556269
30
0
10
125.39867042370528
20
-220.16447195550271
30
0
10
126.04633512940417
20
-220.16447195553349
30
0
10
126.69470539064196
20
-220.16447195556168
30
0
10
127.22041482169817
20
-219.63858613566794
30
0
10
127.22041482172574
20
-218.99021587443281
30
0
0
LWPOLYLINE
5
105
100
AcDbEntity
8
0
100
AcDbPolyline
90
4
70
1
43
0.0
10
104.83899196641241
20
-77.88872481488356
10
104.83899196704101
20
-63.888703783164011
10
90.838797836806933
20
-63.888703782535792
10
90.83879783617806
20
-77.888724814255028
0
LWPOLYLINE
5
106
100
AcDbEntity
8
0
100
AcDbPolyline
90
4
70
1
43
0.0
10
90.837527839539604
20
-25.688455978516053
10
90.837527838910077
20
-39.688477010234323
10
104.83772196914612
20
-39.688477010862542
10
104.83772196977361
20
-25.688455979143949
0
LWPOLYLINE
5
107
100
AcDbEntity
8
0
100
AcDbPolyline
90
4
70
1
43
0.0
10
123.93962299496522
20
-25.488851986195122
10
123.93962299559502
20
-11.488830954476841
10
109.93942886536001
20
-11.488830953846689
10
109.93942886472981
20
-25.488851985565613
0
LWPOLYLINE
5
108
100
AcDbEntity
8
0
100
AcDbPolyline
90
4
70
1
43
0.0
10
109.9244136825194
20
-49.588748973749937
10
109.9244136818902
20
-63.588770005467254
10
123.92460781212492
20
-63.588770006096418
10
123.9246078127525
20
-49.588748974377836
0
LWPOLYLINE
5
109
100
AcDbEntity
8
0
100
AcDbPolyline
90
4
70
1
43
0.0
10
109.93828674018343
20
-30.388930286252723
10
109.93828673955429
20
-44.388951317971966
10
123.93848086978861
20
-44.388951318600817
10
123.93848087041691
20
-30.388930286881592
0
LWPOLYLINE
5
110
100
AcDbEntity
8
0
100
AcDbPolyline
90
4
70
1
43
0.0
10
104.8397559497721
20
-44.787730461168763
10
90.839561819538034
20
-44.787730460542463
10
90.839561818908535
20
-58.787751492260092
10
104.8397559491432
20
-58.787751492888638
0
LWPOLYLINE
5
111
100
AcDbEntity
8
0
100
AcDbPolyline
90
4
70
1
43
0.0
10
90.843458929212076
20
-6.6882412833404103
10
90.843458928582891
20
-20.688262315059646
10
104.84365305881859
20
-20.688262315687552
10
104.84365305944608
20
-6.6882412839692762
0
LWPOLYLINE
5
112
100
AcDbEntity
8
0
100
AcDbPolyline
90
4
70
1
43
0.0
10
123.93949289886072
20
-82.587714704004725
10
123.9394928994902
20
-68.587693672287102
10
109.93929876925492
20
-68.58769367165695
10
109.93929876862602
20
-82.587714703376832
0
LWPOLYLINE
5
113
100
AcDbEntity
8
0
100
AcDbPolyline
90
4
70
1
43
0.0
10
57.238224390242962
20
-85.088768166706359
10
43.238030260009552
20
-85.08876816607652
10
43.238030259380686
20
-99.088789197796089
10
57.238224389615056
20
-99.088789198423711
0
LWPOLYLINE
5
114
100
AcDbEntity
8
0
100
AcDbPolyline
90
4
70
1
43
0.0
10
33.738450699753557
20
-61.187035245143605
10
47.738644829988253
20
-61.187035245771817
10
47.738644830616472
20
-47.187014214053221
10
33.738450700383069
20
-47.18701421342373
0
LWPOLYLINE
5
115
100
AcDbEntity
8
0
100
AcDbPolyline
90
4
70
1
43
0.0
10
85.839704975690182
20
-24.389463196016393
10
71.839510845456445
20
-24.389463195387204
10
71.839510844828553
20
-38.389484227104184
10
85.839704975063256
20
-38.389484227733703
0
LWPOLYLINE
5
116
100
AcDbEntity
8
0
100
AcDbPolyline
90
4
70
1
43
0.0
10
71.839510845457411
20
-43.48768210149511
10
71.839510844828553
20
-57.487703133215319
10
85.839704975062588
20
-57.487703133842906
10
85.839704975691774
20
-43.487682102124303
0
LWPOLYLINE
5
117
100
AcDbEntity
8
0
100
AcDbPolyline
90
4
70
1
43
0.0
10
66.738946075046641
20
-6.6882412839695977
10
52.738751944812265
20
-6.6882412833394467
10
52.738751944184685
20
-20.688262315059013
10
66.73894607441936
20
-20.688262315687552
0
LWPOLYLINE
5
118
100
AcDbEntity
8
0
100
AcDbPolyline
90
4
70
1
43
0.0
10
33.739467689750875
20
-42.189865612337975
10
47.739661819984924
20
-42.189865612967175
10
47.739661820613783
20
-28.189844581247932
10
33.739467690378454
20
-28.189844580619393
0
LWPOLYLINE
5
119
100
AcDbEntity
8
0
100
AcDbPolyline
90
4
70
1
43
0.0
10
52.739643799007553
20
-77.888510392904607
10
66.73983792924254
20
-77.888510393532812
10
66.739837929870461
20
-63.888489361814223
10
52.739643799636099
20
-63.88848936118633
0
LWPOLYLINE
5
120
100
AcDbEntity
8
0
100
AcDbPolyline
90
4
70
1
43
0.0
10
71.768646742041554
20
-19.298885304599942
10
85.768840872275902
20
-19.298885305228481
10
85.768840872904448
20
-5.2988642735114926
10
71.768646742669119
20
-5.2988642728813424
0
LWPOLYLINE
5
121
100
AcDbEntity
8
0
100
AcDbPolyline
90
4
70
1
43
0.0
10
62.23858724862383
20
-82.838333008368025
10
62.238587247994957
20
-96.838354040086912
10
76.2387813782303
20
-96.838354040714506
10
76.238781378859798
20
-82.838333008995932
0
LWPOLYLINE
5
122
100
AcDbEntity
8
0
100
AcDbPolyline
90
4
70
1
43
0.0
10
52.739643799007865
20
-58.789999893608673
10
66.739837929240309
20
-58.789999894237859
10
66.739837929869822
20
-44.789978862519256
10
52.739643799633853
20
-44.78997886189007
0
LWPOLYLINE
5
123
100
AcDbEntity
8
0
100
AcDbPolyline
90
4
70
1
43
0.0
10
66.738946075047608
20
-25.78900018461281
10
52.738751944812265
20
-25.789000183983624
10
52.738751944184685
20
-39.789021215702221
10
66.73894607441936
20
-39.789021216331406
0
LWPOLYLINE
5
124
100
AcDbEntity
8
0
100
AcDbPolyline
90
4
70
1
43
0.0
10
47.738644829986647
20
-23.08855715094133
10
47.738644830614867
20
-9.0885361192224163
10
33.738450700378898
20
-9.0885361185935523
10
33.738450699751318
20
-23.088557150312148
0
LWPOLYLINE
5
125
100
AcDbEntity
8
0
100
AcDbPolyline
90
4
70
1
43
0.0
10
71.838368720281494
20
-62.4878967966714
10
71.838368719653261
20
-76.487917828390309
10
85.838562849889243
20
-76.487917829017562
10
85.838562850515544
20
-62.487896797298966
0
LWPOLYLINE
5
126
100
AcDbEntity
8
0
100
AcDbPolyline
90
4
70
1
43
0.0
10
28.59102390317123
20
-56.588759490552214
10
14.638833924436092
20
-56.588759489922381
10
14.638833923807869
20
-70.58878052164097
10
28.591023902542361
20
-70.588780522269516
0
SPLINE
5
127
100
AcDbEntity
8
0
100
AcDbSpline
70
0
71
3
72
8
73
4
74
0
42
0.000000001
43
0.0000000001
44
0.0000000001
40
0
40
0
40
0
40
0
40
1
40
1
40
1
40
1
10
3.1749999982553554
20
-51.233374934407969
30
0
10
3.1749999981802057
20
-52.449065484875597
30
0
10
4.1590956253090425
20
-53.432786813762654
30
0
10
5.375248736638901
20
-53.432786813837161
30
0
0
LWPOLYLINE
5
128
100
AcDbEntity
8
0
100
AcDbPolyline
90
4
70
1
43
0.0
10
34.801310540415137
20
-95.650404933143534
10
27.801300025281286
20
-83.526031065741591
10
15.676776250164401
20
-90.526128130132534
10
22.676786765297926
20
-102.65050199753581
0
SPLINE
5
129
100
AcDbEntity
8
0
100
AcDbSpline
70
0
71
3
72
8
73
4
74
0
42
0.000000001
43
0.0000000001
44
0.0000000001
40
0
40
0
40
0
40
0
40
1
40
1
40
1
40
1
10
28.720368265196381
20
-53.432884834101372
30
0
10
29.9361671740348
20
-53.432884834210455
30
0
10
30.919976185162135
20
-52.448900459545882
30
0
10
30.91997618527186
20
-51.232884834849173
30
0
0
LWPOLYLINE
5
130
100
AcDbEntity
8
0
100
AcDbPolyline
90
4
70
1
43
0.0
10
33.738450699526403
20
-66.189938830938473
10
33.738450698898184
20
-80.189959862655783
10
47.73864482913352
20
-80.189959863284329
10
47.738644829761412
20
-66.189938831566053
0
LWPOLYLINE
5
131
100
AcDbEntity
8
0
100
AcDbPolyline
90
4
70
1
43
0.0
10
142.9377755583765
20
-45.887563484477909
10
142.9377755583765
20
-31.889638213538536
10
128.9373102901101
20
-31.889638213538536
10
128.9373102901101
20
-45.887563484477909
0
LWPOLYLINE
5
132
100
AcDbEntity
8
0
100
AcDbPolyline
90
4
70
1
43
0.0
10
128.93731029010979
20
-26.988726455522052
10
142.93777555837681
20
-26.988726455522052
10
142.93777555837681
20
-12.98826118725535
10
128.93731029010979
20
-12.98826118725535
0
LWPOLYLINE
5
133
100
AcDbEntity
8
0
100
AcDbPolyline
90
4
70
1
43
0.0
10
142.93966404719117
20
-65.089950322926001
10
142.93966404781941
20
-51.089929291205785
10
128.9394699175854
20
-51.089929290578212
10
128.93946991695651
20
-65.089950322297454
0
LWPOLYLINE
5
134
100
AcDbEntity
8
0
100
AcDbPolyline
90
4
70
1
43
0.0
10
128.98824575013381
20
-70.088616020291582
10
128.9882457495049
20
-84.088637052010824
10
142.98843987973959
20
-84.088637052639385
10
142.98843988036782
20
-70.088616020919488
0
LWPOLYLINE
5
135
100
AcDbEntity
8
0
100
AcDbPolyline
90
5
70
1
43
0.0
10
81.339090404457281
20
-92.412136021142928
10
81.339090404457281
20
-96.839853852551613
10
95.339555672724288
20
-96.839853852551613
10
95.339555672724288
20
-82.839388584285246
10
81.339090404457281
20
-82.839388584285246
0
SPLINE
5
136
100
AcDbEntity
8
0
100
AcDbSpline
70
0
71
3
72
17
73
13
74
0
42
0.000000001
43
0.0000000001
44
0.0000000001
40
0
40
0
40
0
40
0
40
1
40
1
40
1
40
2
40
2
40
2
40
3
40
3
40
3
40
4
40
4
40
4
40
4
10
26.420726742678088
20
-80.930999852536431
30
0
10
26.420726742707604
20
-80.282805980184321
30
0
10
25.895017311697593
20
-79.757096549128747
30
0
10
25.246647050461753
20
-79.757096549099231
30
0
10
24.598982344762828
20
-79.757096549069701
30
0
10
24.073240820959924
20
-80.282805980079104
30
0
10
24.073240820930405
20
-80.930999852431171
30
0
10
24.073240820901532
20
-81.579370113667679
30
0
10
24.598982344658236
20
-82.105255933607623
30
0
10
25.246647050356511
20
-82.105255933637139
30
0
10
25.895017311592991
20
-82.105255933666669
30
0
10
26.420726742649855
20
-81.579370113772882
30
0
10
26.420726742678088
20
-80.930999852536431
30
0
0
SPLINE
5
137
100
AcDbEntity
8
0
100
AcDbSpline
70
0
71
3
72
17
73
13
74
0
42
0.000000001
43
0.0000000001
44
0.0000000001
40
0
40
0
40
0
40
0
40
1
40
1
40
1
40
2
40
2
40
2
40
3
40
3
40
3
40
4
40
4
40
4
40
4
10
51.020578771787868
20
-63.730920846551683
30
0
10
51.020578771817711
20
-63.082726974199275
30
0
10
50.494869340807682
20
-62.557017543143694
30
0
10
49.846499079571522
20
-62.557017543112885
30
0
10
49.198834373872614
20
-62.557017543084648
30
0
10
48.673092850070006
20
-63.082726974092751
30
0
10
48.673092850040511
20
-63.730920846444832
30
0
10
48.673092850010974
20
-64.379291107681311
30
0
10
49.198834373768008
20
-64.905176927622563
30
0
10
49.846499079466291
20
-64.905176927650786
30
0
10
50.494869340702763
20
-64.905176927681921
30
0
10
51.020578771759943
20
-64.379291107787822
30
0
10
51.020578771787868
20
-63.730920846551683
30
0
0
SPLINE
5
138
100
AcDbEntity
8
0
100
AcDbSpline
70
0
71
3
72
17
73
13
74
0
42
0.000000001
43
0.0000000001
44
0.0000000001
40
0
40
0
40
0
40
0
40
1
40
1
40
1
40
2
40
2
40
2
40
3
40
3
40
3
40
4
40
4
40
4
40
4
10
127.22041481159019
20
-27.930967877783473
30
0
10
127.22041481161972
20
-27.282774005431385
30
0
10
126.69470538061132
20
-26.757064574374517
30
0
10
126.0463351193751
20
-26.757064574346284
30
0
10
125.39867041367621
20
-26.757064574316768
30
0
10
124.872928889872
20
-27.28277400532615
30
0
10
124.87292888984342
20
-27.930967877678231
30
0
10
124.87292888981422
20
-28.579338138914704
30
0
10
125.39867041357091
20
-29.105223958854669
30
0
10
126.0463351192686
20
-29.105223958882913
30
0
10
126.694705380507
20
-29.105223958912433
30
0
10
127.22041481156191
20
-28.579338139019942
30
0
10
127.22041481159019
20
-27.930967877783473
30
0
0
SPLINE
5
139
100
AcDbEntity
8
0
100
AcDbSpline
70
0
71
3
72
17
73
13
74
0
42
0.000000001
43
0.0000000001
44
0.0000000001
40
0
40
0
40
0
40
0
40
1
40
1
40
1
40
2
40
2
40
2
40
3
40
3
40
3
40
4
40
4
40
4
40
4
10
127.2204148115911
20
-66.130957713609249
30
0
10
127.22041481161972
20
-65.48276384125748
30
0
10
126.69470538061132
20
-64.957054410200612
30
0
10
126.04633511937479
20
-64.957054410171096
30
0
10
125.39867041367592
20
-64.957054410141581
30
0
10
124.87292888987329
20
-65.482763841150955
30
0
10
124.87292888984311
20
-66.130957713503363
30
0
10
124.87292888981493
20
-66.779327974739516
30
0
10
125.39867041357029
20
-67.305213794679162
30
0
10
126.0463351192695
20
-67.305213794710284
30
0
10
126.69470538050672
20
-67.305213794738862
30
0
10
127.2204148115635
20
-66.77932797484506
30
0
10
127.2204148115911
20
-66.130957713609249
30
0
0
SPLINE
5
140
100
AcDbEntity
8
0
100
AcDbSpline
70
0
71
3
72
17
73
13
74
0
42
0.000000001
43
0.0000000001
44
0.0000000001
40
0
40
0
40
0
40
0
40
1
40
1
40
1
40
2
40
2
40
2
40
3
40
3
40
3
40
4
40
4
40
4
40
4
10
51.020578771787868
20
-25.731074642572271
30
0
10
51.020578771817071
20
-25.082880770218896
30
0
10
50.494869340808322
20
-24.557171339163308
30
0
10
49.846499079572496
20
-24.557171339135078
30
0
10
49.198834373873567
20
-24.557171339105558
30
0
10
48.673092850071306
20
-25.082880770114944
30
0
10
48.673092850040511
20
-25.731074642467036
30
0
10
48.67309285001226
20
-26.379444903703497
30
0
10
49.198834373767689
20
-26.905330723643473
30
0
10
49.846499079467243
20
-26.905330723672986
30
0
10
50.494869340703723
20
-26.905330723701223
30
0
10
51.020578771759943
20
-26.379444903808739
30
0
10
51.020578771787868
20
-25.731074642572271
30
0
0
SPLINE
5
141
100
AcDbEntity
8
0
100
AcDbSpline
70
0
71
3
72
29
73
25
74
0
42
0.000000001
43
0.0000000001
44
0.0000000001
40
0
40
0
40
0
40
0
40
0.027320149802440061
40
0.027320149802440061
40
0.027320149802440061
40
0.059522516639142604
40
0.059522516639142604
40
0.059522516639142604
40
0.1052773759372862
40
0.1052773759372862
40
0.1052773759372862
40
0.16833193197343826
40
0.16833193197343826
40
0.16833193197343826
40
0.26707039335562432
40
0.26707039335562432
40
0.26707039335562432
40
0.43563300707362174
40
0.43563300707362174
40
0.43563300707362174
40
0.74512891545276105
40
0.74512891545276105
40
0.74512891545276105
40
1
40
1
40
1
40
1
10
160.6974718300022
20
-9.5249932199021607
30
0
10
160.6974718472303
20
-7.4025880662530952
30
0
10
160.23361298207757
20
-5.3122067559978916
30
0
10
159.54027539200655
20
-3.6023177601952767
30
0
10
158.72303567778113
20
-1.5868649500515013
30
0
10
157.6490565216144
20
-0.084916439342411193
30
0
10
156.65778538349855
20
1.0351715694897372
30
0
10
155.24933389666225
20
2.6266530126251957
30
0
10
153.98567836783985
20
3.5286355400430298
30
0
10
152.90252266549075
20
4.2172390791006844
30
0
10
151.40983089510166
20
5.1662003720920326
30
0
10
150.19930142620166
20
5.6953179712343474
30
0
10
149.06542384598313
20
6.1409028145550462
30
0
10
147.28986098891787
20
6.8386535340983432
30
0
10
145.69193012865736
20
7.2836543040482109
30
0
10
144.00654262236733
20
7.688199779897479
30
0
10
141.129312015256
20
8.3788247078371256
30
0
10
138.02520844268219
20
8.9012359491861339
30
0
10
134.49726345262479
20
9.3704048946335892
30
0
10
128.01964356215402
20
10.231840688441762
30
0
10
120.17096992183619
20
10.87168979247307
30
0
10
111.26886720973523
20
11.290854637435164
30
0
10
103.93795099547417
20
11.636038517891159
30
0
10
95.913605742000186
20
11.825000624299985
30
0
10
87.488353252784762
20
11.825000692689848
30
0
0
LINE
5
142
100
AcDbEntity
8
0
100
AcDbLine
10
160.69747192367461
20
-9.5249933327493235
30
0
11
160.69747192367461
21
-85.377973137507922
31
0
0
SPLINE
5
143
100
AcDbEntity
8
0
100
AcDbSpline
70
0
71
3
72
14
73
10
74
0
42
0.000000001
43
0.0000000001
44
0.0000000001
40
0
40
0
40
0
40
0
40
0.33640571536870334
40
0.33640571536870334
40
0.33640571536870334
40
0.74345630742724222
40
0.74345630742724222
40
0.74345630742724222
40
1
40
1
40
1
40
1
10
160.69747166705747
20
-85.377973066395157
30
0
10
160.69747166699912
20
-88.379039825677111
30
0
10
159.85536118176037
20
-91.318692230016381
30
0
10
158.39779040948071
20
-93.781428469379165
30
0
10
156.63413117683839
20
-96.761336950475965
30
0
10
153.99163200065328
20
-99.11249562243249
30
0
10
150.77609846445756
20
-100.5104218220096
30
0
10
148.74950800356334
20
-101.39146500479939
30
0
10
146.48609136918719
20
-101.87797306574382
30
0
10
144.19747166711167
20
-101.87797306569932
30
0
0
LINE
5
144
100
AcDbEntity
8
0
100
AcDbLine
10
113.45888988702325
20
-101.8779730651017
30
0
11
144.19747166711167
21
-101.87797306569932
31
0
0
LINE
5
145
100
AcDbEntity
8
0
100
AcDbLine
10
42.126896682602258
20
-116.59989609973449
30
0
11
97.056819854333895
21
-116.59989637868347
31
0
0
LINE
5
146
100
AcDbEntity
8
0
100
AcDbLine
10
-2.7017728428325976
20
-93.920512847345989
30
0
11
-1.0200976303584071
21
-96.78203717629296
31
0
0
LINE
5
147
100
AcDbEntity
8
0
100
AcDbLine
10
-1.0200976303584071
20
-96.78203717629296
30
0
11
0.66157912065913316
21
-99.643564071023064
31
0
0
LINE
5
148
100
AcDbEntity
8
0
100
AcDbLine
10
0.66157912065913316
20
-99.643564071023064
30
0
11
2.3432558913413093
21
-102.50509095419575
31
0
0
LINE
5
149
100
AcDbEntity
8
0
100
AcDbLine
10
2.3432558913413093
20
-102.50509095419575
30
0
11
4.0249326791189883
21
-105.36661782732267
31
0
0
LINE
5
150
100
AcDbEntity
8
0
100
AcDbLine
10
4.0249326791189883
20
-105.36661782732267
30
0
11
5.7066094818647874
21
-108.22814469165121
31
0
0
LINE
5
151
100
AcDbEntity
8
0
100
AcDbLine
10
5.7066094818647874
20
-108.22814469165121
30
0
11
7.388286297812301
21
-111.08967154822564
31
0
0
LINE
5
152
100
AcDbEntity
8
0
100
AcDbLine
10
7.388286297812301
20
-111.08967154822564
30
0
11
9.0699631254707178
21
-113.95119839791039
31
0
0
LINE
5
153
100
AcDbEntity
8
0
100
AcDbLine
10
9.0699631254707178
20
-113.95119839791039
30
0
11
11.315049079779392
21
-117.77141738816792
31
0
0
LINE
5
154
100
AcDbEntity
8
0
100
AcDbLine
10
11.315049079779392
20
-117.77141738816792
30
0
11
13.676227826967819
21
-120.69540811271875
31
0
0
LINE
5
155
100
AcDbEntity
8
0
100
AcDbLine
10
13.676227826967819
20
-120.69540811271875
30
0
11
16.772544936505291
21
-122.64509493033265
31
0
0
LINE
5
156
100
AcDbEntity
8
0
100
AcDbLine
10
16.772544936505291
20
-122.64509493033265
30
0
11
18.661675602740267
21
-123.51268466914155
31
0
0
LINE
5
157
100
AcDbEntity
8
0
100
AcDbLine
10
18.661675602740267
20
-123.51268466914155
30
0
11
21.795938895137365
21
-124.48723871358067
31
0
0
LINE
5
158
100
AcDbEntity
8
0
100
AcDbLine
10
21.795938895137365
20
-124.48723871358067
30
0
11
24.830377819261638
21
-124.51808280933196
31
0
0
LINE
5
159
100
AcDbEntity
8
0
100
AcDbLine
10
24.830377819261638
20
-124.51808280933196
30
0
11
27.37570739653053
21
-124.29912964371097
31
0
0
LINE
5
160
100
AcDbEntity
8
0
100
AcDbLine
10
27.37570739653053
20
-124.29912964371097
30
0
11
30.498777175985214
21
-123.28879025769056
31
0
0
LINE
5
161
100
AcDbEntity
8
0
100
AcDbLine
10
30.498777175985214
20
-123.28879025769056
30
0
11
32.07503468721842
21
-122.41939468627493
31
0
0
LINE
5
162
100
AcDbEntity
8
0
100
AcDbLine
10
32.07503468721842
20
-122.41939468627493
30
0
11
33.88546814066126
21
-121.37124909558329
31
0
0
LINE
5
163
100
AcDbEntity
8
0
100
AcDbLine
10
33.88546814066126
20
-121.37124909558329
30
0
11
35.56116262020668
21
-120.40111026829078
31
0
0
LINE
5
164
100
AcDbEntity
8
0
100
AcDbLine
10
35.56116262020668
20
-120.40111026829078
30
0
11
37.236857098538543
21
-119.43097143889985
31
0
0
LINE
5
165
100
AcDbEntity
8
0
100
AcDbLine
10
37.236857098538543
20
-119.43097143889985
30
0
11
38.912551575481857
21
-118.4608326071122
31
0
0
LINE
5
166
100
AcDbEntity
8
0
100
AcDbLine
10
38.912551575481857
20
-118.4608326071122
30
0
11
40.588246050808308
21
-117.49069377253011
31
0
0
LINE
5
167
100
AcDbEntity
8
0
100
AcDbLine
10
40.588246050808308
20
-117.49069377253011
30
0
11
42.126896682602258
21
-116.59989609973449
31
0
0
LINE
5
168
100
AcDbEntity
8
0
100
AcDbLine
10
-11.800642037130956
20
-56.474458724638019
30
0
11
-11.460051180922978
21
-62.551840747254218
31
0
0
LINE
5
169
100
AcDbEntity
8
0
100
AcDbLine
10
-11.460051180922978
20
-62.551840747254218
30
0
11
-10.582257464292557
21
-69.425729666285989
31
0
0
LINE
5
170
100
AcDbEntity
8
0
100
AcDbLine
10
-10.582257464292557
20
-69.425729666285989
30
0
11
-9.382231855653373
21
-75.542577247592561
31
0
0
LINE
5
171
100
AcDbEntity
8
0
100
AcDbLine
10
-9.382231855653373
20
-75.542577247592561
30
0
11
-7.9886436402097347
21
-80.862493911071155
31
0
0
LINE
5
172
100
AcDbEntity
8
0
100
AcDbLine
10
-7.9886436402097347
20
-80.862493911071155
30
0
11
-6.5265656519449688
21
-85.352193332683228
31
0
0
LINE
5
173
100
AcDbEntity
8
0
100
AcDbLine
10
-6.5265656519449688
20
-85.352193332683228
30
0
11
-5.1133236351075571
21
-88.991027231624429
31
0
0
LINE
5
174
100
AcDbEntity
8
0
100
AcDbLine
10
-5.1133236351075571
20
-88.991027231624429
30
0
11
-3.837515332138135
21
-91.808275495016218
31
0
0
LINE
5
175
100
AcDbEntity
8
0
100
AcDbLine
10
-3.837515332138135
20
-91.808275495016218
30
0
11
-3.0216308454784189
21
-93.347071396726577
31
0
0
LINE
5
176
100
AcDbEntity
8
0
100
AcDbLine
10
-11.800642037130956
20
-56.474458724638019
30
0
11
-11.824979563329999
21
-51.233376776456851
31
0
0
LINE
5
177
100
AcDbEntity
8
0
100
AcDbLine
10
-3.0216308454784189
20
-93.347071396726577
30
0
11
-2.7017728428325976
21
-93.920512847345989
31
0
0
SPLINE
5
178
100
AcDbEntity
8
0
100
AcDbSpline
70
0
71
3
72
14
73
10
74
0
42
0.000000001
43
0.0000000001
44
0.0000000001
40
0.066831490777100933
40
0.066831490777100933
40
0.066831490777100933
40
0.066831490777100933
40
0.3364057153689578
40
0.3364057153689578
40
0.3364057153689578
40
0.74345630742797963
40
0.74345630742797963
40
0.74345630742797963
40
1
40
1
40
1
40
1
10
113.45888988702325
20
-101.8779730651017
30
0
10
113.19793639914216
20
-104.25014309061341
30
0
10
112.42514345692126
20
-106.52987100594957
30
0
10
111.25713859629711
20
-108.50335178166246
30
0
10
109.4934793637993
20
-111.48326026285073
30
0
10
106.8509801877247
20
-113.83441893494012
30
0
10
103.63544665159284
20
-115.23234513467483
30
0
10
101.6088561907471
20
-116.11338831756032
30
0
10
99.345439556401885
20
-116.59989637861413
30
0
10
97.056819854333895
20
-116.59989637868347
30
0
0
SPLINE
5
179
100
AcDbEntity
8
0
100
AcDbSpline
70
0
71
3
72
14
73
10
74
0
42
0.000000001
43
0.0000000001
44
0.0000000001
40
0.14789961243128777
40
0.14789961243128777
40
0.14789961243128777
40
0.14789961243128777
40
0.33626510483206679
40
0.33626510483206679
40
0.33626510483206679
40
0.74359110851659105
40
0.74359110851659105
40
0.74359110851659105
40
1
40
1
40
1
40
1
10
1.328069236461535
20
11.624556402450981
30
0
10
-0.34526985829719553
20
11.218633223528316
30
0
10
-1.9382536447671861
20
10.56998632455633
30
0
10
-3.3762522454294839
20
9.7200257829332433
30
0
10
-6.485814489799937
20
7.8820509697320817
30
0
10
-8.9402205062299025
20
5.125159181483995
30
0
10
-10.398523953188711
20
1.7722192997315349
30
0
10
-11.316515848866322
20
-0.33843307825049934
30
0
10
-11.823936411351706
20
-2.6944679234711337
30
0
10
-11.824979563329672
20
-5.0807232746235957
30
0
0
LINE
5
180
100
AcDbEntity
8
0
100
AcDbLine
10
3.1816757110745408
20
10.166174708787427
30
0
11
3.1750028756244957
21
-5.0771798583590773
31
0
0
ARC
5
181
100
AcDbEntity
8
0
100
AcDbCircle
10
1.6816758547455142
20
10.16683133932731
30
0
40
1.5000000000502556
210
-0
220
0
230
1
100
AcDbArc
50
-0.025081439881870497
51
103.63511434497283
0
LINE
5
182
100
AcDbEntity
8
0
100
AcDbLine
10
173.20742935809986
20
-58.029998087089453
30
0
11
173.20811123837819
21
-7.5745309488612378
31
0
0
LINE
5
183
100
AcDbEntity
8
0
100
AcDbLine
10
173.23117969195414
20
-58.869411163717722
30
0
11
173.62204614980709
21
-65.843841279986478
31
0
0
LINE
5
184
100
AcDbEntity
8
0
100
AcDbLine
10
173.62204614980709
20
-65.843841279986478
30
0
11
174.49433970242225
21
-72.674645624163574
31
0
0
LINE
5
185
100
AcDbEntity
8
0
100
AcDbLine
10
174.49433970242225
20
-72.674645624163574
30
0
11
175.68690087714302
21
-78.753440324350649
31
0
0
LINE
5
186
100
AcDbEntity
8
0
100
AcDbLine
10
175.68690087714302
20
-78.753440324350649
30
0
11
177.07191962867998
21
-84.040641978487102
31
0
0
LINE
5
187
100
AcDbEntity
8
0
100
AcDbLine
10
177.07191962867998
20
-84.040641978487102
30
0
11
178.52518236651974
21
-88.503271290623942
31
0
0
LINE
5
188
100
AcDbEntity
8
0
100
AcDbLine
10
178.52518236651974
20
-88.503271290623942
30
0
11
179.93022248771425
21
-92.12098681464704
31
0
0
LINE
5
189
100
AcDbEntity
8
0
100
AcDbLine
10
179.93022248771425
20
-92.12098681464704
30
0
11
181.19930107285887
21
-94.92337463260354
31
0
0
LINE
5
190
100
AcDbEntity
8
0
100
AcDbLine
10
181.19930107285887
20
-94.92337463260354
30
0
11
182.01079075324196
21
-96.453881913511879
31
0
0
SPLINE
5
191
100
AcDbEntity
8
0
100
AcDbSpline
70
0
71
3
72
29
73
25
74
0
42
0.000000001
43
0.0000000001
44
0.0000000001
40
0
40
0
40
0
40
0
40
0.027320149802436869
40
0.027320149802436869
40
0.027320149802436869
40
0.059522516639143618
40
0.059522516639143618
40
0.059522516639143618
40
0.10527737593728753
40
0.10527737593728753
40
0.10527737593728753
40
0.1683319319734386
40
0.1683319319734386
40
0.1683319319734386
40
0.26707039335562338
40
0.26707039335562338
40
0.26707039335562338
40
0.43563300707362318
40
0.43563300707362318
40
0.43563300707362318
40
0.74512891545275961
40
0.74512891545275961
40
0.74512891545275961
40
1
40
1
40
1
40
1
10
345.72990127243327
20
-12.874524267459257
30
0
10
345.72990127243327
20
-10.752119113810412
30
0
10
345.26604239031235
20
-8.6617378073199784
30
0
10
344.57270478636184
20
-6.9518488171455681
30
0
10
343.75546505577637
20
-4.9363960136352807
30
0
10
342.68148588741803
20
-3.4344475116441502
30
0
10
341.69021474021002
20
-2.3143595108582926
30
0
10
340.28176324045523
20
-0.72287807915563529
30
0
10
339.01810770431121
20
0.17910443800475212
30
0
10
337.93495199637255
20
0.86770796827013719
30
0
10
336.44226021828058
20
1.8166692491448777
30
0
10
335.23173074508554
20
2.3457868384609739
30
0
10
334.09785316125016
20
2.7913716725776982
30
0
10
332.32229029852112
20
3.4891223777082998
30
0
10
330.72435943464853
20
3.934123134687348
30
0
10
329.03897192507475
20
4.3386685968559018
30
0
10
326.16174131235738
20
5.0292935014403595
30
0
10
323.05763773554304
20
5.5517047175925951
30
0
10
319.52969274167725
20
6.0208736344028502
30
0
10
313.05207284421408
20
6.8823093756305607
30
0
10
305.20339919870264
20
7.5221584159522354
30
0
10
296.30129648319939
20
7.9413231886537616
30
0
10
288.97038026613637
20
8.2865070096029019
30
0
10
280.94603501112852
20
8.475469050876141
30
0
10
272.52078252191308
20
8.4754690508761499
30
0
0
LINE
5
192
100
AcDbEntity
8
0
100
AcDbLine
10
272.52078252191302
20
8.4754690508761499
30
0
11
217.45225505846949
21
8.4754690508761339
31
0
0
LINE
5
193
100
AcDbEntity
8
0
100
AcDbLine
10
182.31331869616312
20
-96.99664099079861
30
0
11
183.98901314018858
21
-99.862960434526542
31
0
0
LINE
5
194
100
AcDbEntity
8
0
100
AcDbLine
10
183.98901314018858
20
-99.862960434526542
30
0
11
185.66470758421423
21
-102.7292798782547
31
0
0
LINE
5
195
100
AcDbEntity
8
0
100
AcDbLine
10
185.66470758421423
20
-102.7292798782547
30
0
11
187.34040202823974
21
-105.59559932198253
31
0
0
LINE
5
196
100
AcDbEntity
8
0
100
AcDbLine
10
187.34040202823974
20
-105.59559932198253
30
0
11
189.0160964722655
21
-108.46191876571072
31
0
0
LINE
5
197
100
AcDbEntity
8
0
100
AcDbLine
10
189.0160964722655
20
-108.46191876571072
30
0
11
190.69179091629115
21
-111.32823820943867
31
0
0
LINE
5
198
100
AcDbEntity
8
0
100
AcDbLine
10
190.69179091629115
20
-111.32823820943867
30
0
11
192.36748536031649
21
-114.19455765316614
31
0
0
LINE
5
199
100
AcDbEntity
8
0
100
AcDbLine
10
192.36748536031649
20
-114.19455765316614
30
0
11
194.04317980434172
21
-117.06087709689371
31
0
0
LINE
5
200
100
AcDbEntity
8
0
100
AcDbLine
10
194.04317980434172
20
-117.06087709689371
30
0
11
195.8937725109916
21
-120.22636462142626
31
0
0
LINE
5
201
100
AcDbEntity
8
0
100
AcDbLine
10
195.8937725109916
20
-120.22636462142626
30
0
11
196.63817225584626
21
-121.37447592366519
31
0
0
LINE
5
202
100
AcDbEntity
8
0
100
AcDbLine
10
196.63817225584626
20
-121.37447592366519
30
0
11
198.07016356762122
21
-123.1470930508204
31
0
0
LINE
5
203
100
AcDbEntity
8
0
100
AcDbLine
10
198.07016356762122
20
-123.1470930508204
30
0
11
200.66927459978723
21
-125.41716384607328
31
0
0
LINE
5
204
100
AcDbEntity
8
0
100
AcDbLine
10
200.66927459978723
20
-125.41716384607328
30
0
11
204.80414856767325
21
-127.43405713579335
31
0
0
LINE
5
205
100
AcDbEntity
8
0
100
AcDbLine
10
204.80414856767325
20
-127.43405713579335
30
0
11
209.6106616581576
21
-128.04501694615143
31
0
0
LINE
5
206
100
AcDbEntity
8
0
100
AcDbLine
10
209.6106616581576
20
-128.04501694615143
30
0
11
213.47159939640034
21
-127.3801559524494
31
0
0
LINE
5
207
100
AcDbEntity
8
0
100
AcDbLine
10
213.47159939640034
20
-127.3801559524494
30
0
11
215.88650696549178
21
-126.42961564236246
31
0
0
LINE
5
208
100
AcDbEntity
8
0
100
AcDbLine
10
215.88650696549178
20
-126.42961564236246
30
0
11
217.04506585657296
21
-125.80505214016753
31
0
0
LINE
5
209
100
AcDbEntity
8
0
100
AcDbLine
10
217.04506585657296
20
-125.80505214016753
30
0
11
218.91789799537321
21
-124.72078090191481
31
0
0
LINE
5
210
100
AcDbEntity
8
0
100
AcDbLine
10
218.91789799537321
20
-124.72078090191481
30
0
11
220.59359243939898
21
-123.75064201326835
31
0
0
LINE
5
211
100
AcDbEntity
8
0
100
AcDbLine
10
220.59359243939898
20
-123.75064201326835
30
0
11
222.26928688342471
21
-122.78050312462183
31
0
0
LINE
5
212
100
AcDbEntity
8
0
100
AcDbLine
10
222.26928688342471
20
-122.78050312462183
30
0
11
223.94498132744985
21
-121.81036423597575
31
0
0
LINE
5
213
100
AcDbEntity
8
0
100
AcDbLine
10
223.94498132744985
20
-121.81036423597575
30
0
11
225.62067577147556
21
-120.84022534732932
31
0
0
LINE
5
214
100
AcDbEntity
8
0
100
AcDbLine
10
225.62067577147556
20
-120.84022534732932
30
0
11
227.15932680020592
21
-119.9494273833275
31
0
0
LINE
5
215
100
AcDbEntity
8
0
100
AcDbLine
10
227.15932680020592
20
-119.9494273833275
30
0
11
282.08924920600288
21
-119.9494273833275
31
0
0
SPLINE
5
216
100
AcDbEntity
8
0
100
AcDbSpline
70
0
71
3
72
14
73
10
74
0
42
0.000000001
43
0.0000000001
44
0.0000000001
40
0
40
0
40
0
40
0
40
0.33640571536942082
40
0.33640571536942082
40
0.33640571536942082
40
0.74345630742718272
40
0.74345630742718272
40
0.74345630742718272
40
1
40
1
40
1
40
1
10
345.72990102639767
20
-88.727504072218082
30
0
10
345.72990102639767
20
-91.728570831507156
30
0
10
344.88779054121215
20
-94.668223235867941
30
0
10
343.43021976897523
20
-97.13095947526179
30
0
10
341.66656053639178
20
-100.11086795638418
30
0
10
339.02406136025729
20
-102.46202662838635
30
0
10
335.80852782409517
20
-103.85995282802409
30
0
10
333.78193736321771
20
-104.74099601085393
30
0
10
331.51852072884947
20
-105.22750407184311
30
0
10
329.22990102677261
20
-105.22750407184311
30
0
0
LINE
5
217
100
AcDbEntity
8
0
100
AcDbLine
10
298.49131923913808
20
-105.22750407024297
30
0
11
329.22990102677261
21
-105.22750407184311
31
0
0
LINE
5
218
100
AcDbEntity
8
0
100
AcDbLine
10
345.72990128256828
20
-12.874524282666968
30
0
11
345.72990128256828
21
-88.727504087425118
31
0
0
LINE
5
219
100
AcDbEntity
8
0
100
AcDbLine
10
173.20742935809986
20
-58.029998087089453
30
0
11
173.23117969195414
21
-58.869411163717722
31
0
0
LINE
5
220
100
AcDbEntity
8
0
100
AcDbLine
10
182.01079075324196
20
-96.453881913511879
30
0
11
182.31331869616312
21
-96.99664099079861
31
0
0
SPLINE
5
221
100
AcDbEntity
8
0
100
AcDbSpline
70
0
71
3
72
14
73
10
74
0
42
0.000000001
43
0.0000000001
44
0.0000000001
40
0.066831490777149213
40
0.066831490777149213
40
0.066831490777149213
40
0.066831490777149213
40
0.33640571536942204
40
0.33640571536942204
40
0.33640571536942204
40
0.74345630742925861
40
0.74345630742925861
40
0.74345630742925861
40
1
40
1
40
1
40
1
10
298.49131923913808
20
-105.22750407024297
30
0
10
298.23036575118471
20
-107.59967409574966
30
0
10
297.45757280889291
20
-109.87940201106676
30
0
10
296.28956794820533
20
-111.85288278674722
30
0
10
294.52590871561091
20
-114.8327912678879
30
0
10
291.88340953945408
20
-117.18394993989959
30
0
10
288.66787600327007
20
-118.58187613953268
30
0
10
286.64128554240563
20
-119.46291932234799
30
0
10
284.37786890805751
20
-119.9494273833275
30
0
10
282.08924920600288
20
-119.9494273833275
30
0
0
SPLINE
5
222
100
AcDbEntity
8
0
100
AcDbSpline
70
0
71
3
72
17
73
13
74
0
42
0.000000001
43
0.0000000001
44
0.0000000001
40
0
40
0
40
0
40
0
40
0.060178565190549101
40
0.060178565190549101
40
0.060178565190549101
40
0.1652037187222638
40
0.1652037187222638
40
0.1652037187222638
40
0.41135478054514485
40
0.41135478054514485
40
0.41135478054514485
40
1
40
1
40
1
40
1
10
331.72990128733443
20
-12.874524267459257
30
0
10
331.72990128733443
20
-12.365716607303362
30
0
10
331.49180068813428
20
-11.911705000383128
30
0
10
331.19660429489016
20
-11.58180034925012
30
0
10
330.68142008562393
20
-11.006042410748913
30
0
10
329.97680218124378
20
-10.63877501805206
30
0
10
329.05990434731461
20
-10.27136893076035
30
0
10
326.91093938211117
20
-9.410266657010899
30
0
10
323.52057356686635
20
-8.6874809027924584
30
0
10
319.04054178848764
20
-8.0443325931547154
30
0
10
308.32700161596546
20
-6.5063088484465057
30
0
10
291.49460154036854
20
-5.5245309342227102
30
0
10
272.52078252191308
20
-5.5245309342226889
30
0
0
LINE
5
223
100
AcDbEntity
8
0
100
AcDbLine
10
272.52078252191308
20
-5.5245309342226898
30
0
11
217.45225505846952
21
-5.524530934222649
31
0
0
LINE
5
224
100
AcDbEntity
8
0
100
AcDbLine
10
187.20924577803811
20
-58.086041470764968
30
0
11
187.57227981498852
21
-64.563843465967281
31
0
0
LINE
5
225
100
AcDbEntity
8
0
100
AcDbLine
10
187.57227981498852
20
-64.563843465967281
30
0
11
188.32239163049039
21
-70.437860340891376
31
0
0
LINE
5
226
100
AcDbEntity
8
0
100
AcDbLine
10
188.32239163049039
20
-70.437860340891376
30
0
11
189.34079906523706
21
-75.628948100744623
31
0
0
LINE
5
227
100
AcDbEntity
8
0
100
AcDbLine
10
189.34079906523706
20
-75.628948100744623
30
0
11
190.51094325511366
21
-80.095882782624017
31
0
0
LINE
5
228
100
AcDbEntity
8
0
100
AcDbLine
10
190.51094325511366
20
-80.095882782624017
30
0
11
191.71650509965986
21
-83.79788069737323
31
0
0
LINE
5
229
100
AcDbEntity
8
0
100
AcDbLine
10
191.71650509965986
20
-83.79788069737323
30
0
11
192.84168196426106
21
-86.695000679170434
31
0
0
LINE
5
230
100
AcDbEntity
8
0
100
AcDbLine
10
192.84168196426106
20
-86.695000679170434
30
0
11
193.77258639323369
21
-88.750630064120884
31
0
0
LINE
5
231
100
AcDbEntity
8
0
100
AcDbLine
10
193.77258639323369
20
-88.750630064120884
30
0
11
194.37973836737558
21
-89.895746926979115
31
0
0
LINE
5
232
100
AcDbEntity
8
0
100
AcDbLine
10
187.20924577803811
20
-58.086041470764968
30
0
11
187.20742935809983
21
-58.029998087089467
31
0
0
LINE
5
233
100
AcDbEntity
8
0
100
AcDbLine
10
194.39947380096635
20
-89.930888775683329
30
0
11
196.0751682449918
21
-92.79720821941126
31
0
0
LINE
5
234
100
AcDbEntity
8
0
100
AcDbLine
10
196.0751682449918
20
-92.79720821941126
30
0
11
197.75086268901734
21
-95.663527663139206
31
0
0
LINE
5
235
100
AcDbEntity
8
0
100
AcDbLine
10
197.75086268901734
20
-95.663527663139206
30
0
11
199.42655713304279
21
-98.529847106866995
31
0
0
LINE
5
236
100
AcDbEntity
8
0
100
AcDbLine
10
199.42655713304279
20
-98.529847106866995
30
0
11
201.10225157706839
21
-101.39616655059487
31
0
0
LINE
5
237
100
AcDbEntity
8
0
100
AcDbLine
10
201.10225157706839
20
-101.39616655059487
30
0
11
202.77794602109398
21
-104.26248599432269
31
0
0
LINE
5
238
100
AcDbEntity
8
0
100
AcDbLine
10
202.77794602109398
20
-104.26248599432269
30
0
11
204.45364046511952
21
-107.12880543805051
31
0
0
LINE
5
239
100
AcDbEntity
8
0
100
AcDbLine
10
204.45364046511952
20
-107.12880543805051
30
0
11
206.12933490914492
21
-109.99512488177842
31
0
0
LINE
5
240
100
AcDbEntity
8
0
100
AcDbLine
10
206.12933490914492
20
-109.99512488177842
30
0
11
207.81668923751909
21
-112.88138886452357
31
0
0
LINE
5
241
100
AcDbEntity
8
0
100
AcDbLine
10
207.81668923751909
20
-112.88138886452357
30
0
11
207.98766971400886
21
-113.14509746850548
31
0
0
LINE
5
242
100
AcDbEntity
8
0
100
AcDbLine
10
207.98766971400886
20
-113.14509746850548
30
0
11
208.19601604510936
21
-113.40300285651436
31
0
0
LINE
5
243
100
AcDbEntity
8
0
100
AcDbLine
10
208.19601604510936
20
-113.40300285651436
30
0
11
208.47823619479055
21
-113.64949471919145
31
0
0
LINE
5
244
100
AcDbEntity
8
0
100
AcDbLine
10
208.47823619479055
20
-113.64949471919145
30
0
11
208.86344579770267
21
-113.83739081210342
31
0
0
LINE
5
245
100
AcDbEntity
8
0
100
AcDbLine
10
208.86344579770267
20
-113.83739081210342
30
0
11
209.29857601870734
21
-113.8927005704046
31
0
0
LINE
5
246
100
AcDbEntity
8
0
100
AcDbLine
10
209.29857601870734
20
-113.8927005704046
30
0
11
209.68035197780509
21
-113.82695800713476
31
0
0
LINE
5
247
100
AcDbEntity
8
0
100
AcDbLine
10
209.68035197780509
20
-113.82695800713476
30
0
11
209.97994943996585
21
-113.70903239034162
31
0
0
LINE
5
248
100
AcDbEntity
8
0
100
AcDbLine
10
209.97994943996585
20
-113.70903239034162
30
0
11
210.21455325804914
21
-113.5825606301416
31
0
0
LINE
5
249
100
AcDbEntity
8
0
100
AcDbLine
10
210.21455325804914
20
-113.5825606301416
30
0
11
211.90339021525563
21
-112.60481291807474
31
0
0
LINE
5
250
100
AcDbEntity
8
0
100
AcDbLine
10
211.90339021525563
20
-112.60481291807474
30
0
11
213.57908465928125
21
-111.63467402942835
31
0
0
LINE
5
251
100
AcDbEntity
8
0
100
AcDbLine
10
213.57908465928125
20
-111.63467402942835
30
0
11
215.25477910330679
21
-110.66453514078198
31
0
0
LINE
5
252
100
AcDbEntity
8
0
100
AcDbLine
10
215.25477910330679
20
-110.66453514078198
30
0
11
216.93047354733227
21
-109.69439625213569
31
0
0
LINE
5
253
100
AcDbEntity
8
0
100
AcDbLine
10
216.93047354733227
20
-109.69439625213569
30
0
11
218.60616799135778
21
-108.72425736348937
31
0
0
LINE
5
254
100
AcDbEntity
8
0
100
AcDbLine
10
218.60616799135778
20
-108.72425736348937
30
0
11
220.28186243538329
21
-107.754118474843
31
0
0
LINE
5
255
100
AcDbEntity
8
0
100
AcDbLine
10
220.28186243538329
20
-107.754118474843
30
0
11
221.95755687940888
21
-106.78397958619658
31
0
0
LINE
5
256
100
AcDbEntity
8
0
100
AcDbLine
10
221.95755687940888
20
-106.78397958619658
30
0
11
223.39905611317178
21
-105.94942739822866
31
0
0
LINE
5
257
100
AcDbEntity
8
0
100
AcDbLine
10
194.37973836737558
20
-89.895746926979115
30
0
11
194.39947380096635
21
-89.930888775683329
31
0
0
LINE
5
258
100
AcDbEntity
8
0
100
AcDbLine
10
223.39905611317178
20
-105.94942739822866
30
0
11
282.08924920600288
21
-105.94942739822866
31
0
0
SPLINE
5
259
100
AcDbEntity
8
0
100
AcDbSpline
70
0
71
3
72
11
73
7
74
0
42
0.000000001
43
0.0000000001
44
0.0000000001
40
0
40
0
40
0
40
0
40
0.87838446929573588
40
0.87838446929573588
40
0.87838446929573588
40
1
40
1
40
1
40
1
10
284.58924922052904
20
-103.44942738370247
30
0
10
284.58924922052904
20
-104.6515490190562
30
0
10
283.72685342368209
20
-105.67325108143643
30
0
10
282.57870498887598
20
-105.90140373316187
30
0
10
282.41973965409704
20
-105.93299229920677
30
0
10
282.25568732708189
20
-105.94942739822866
30
0
10
282.08924920600288
20
-105.94942739822866
30
0
0
SPLINE
5
260
100
AcDbEntity
8
0
100
AcDbSpline
70
0
71
3
72
11
73
7
74
0
42
0.000000001
43
0.0000000001
44
0.0000000001
40
0
40
0
40
0
40
0
40
0.87838447257351226
40
0.87838447257351226
40
0.87838447257351226
40
1
40
1
40
1
40
1
10
331.72990102639767
20
-88.727504072218082
30
0
10
331.72990102639767
20
-89.929625704996397
30
0
10
330.86750522808188
20
-90.95132776428288
30
0
10
329.71935679388821
20
-91.17948040961609
30
0
10
329.5603914640717
20
-91.211068973806718
30
0
10
329.39633914238823
20
-91.227504071843114
30
0
10
329.22990102677261
20
-91.227504071843114
30
0
0
LINE
5
261
100
AcDbEntity
8
0
100
AcDbLine
10
287.08924920459651
20
-91.227504071843072
30
0
11
329.22990102677267
21
-91.227504071843114
31
0
0
SPLINE
5
262
100
AcDbEntity
8
0
100
AcDbSpline
70
0
71
3
72
11
73
7
74
0
42
0.000000001
43
0.0000000001
44
0.0000000001
40
0
40
0
40
0
40
0
40
0.87838447256926311
40
0.87838447256926311
40
0.87838447256926311
40
1
40
1
40
1
40
1
10
284.58924920562788
20
-93.727504071080631
30
0
10
284.58924920557297
20
-92.50205924218298
30
0
10
285.45231312844999
20
-91.503071804588515
30
0
10
286.59686151769523
20
-91.275634536887537
30
0
10
286.7553284081913
20
-91.24414501933272
30
0
10
286.91958190762278
20
-91.227504071850603
30
0
10
287.08924920464096
20
-91.227504071843072
30
0
0
LINE
5
263
100
AcDbEntity
8
0
100
AcDbLine
10
284.58924920562788
20
-93.727504071080631
30
0
11
284.58924922052904
21
-103.44942738370247
31
0
0
LINE
5
264
100
AcDbEntity
8
0
100
AcDbLine
10
331.72990128256828
20
-12.874524282666968
30
0
11
331.72990128256828
21
-88.727504087425118
31
0
0
LINE
5
265
100
AcDbEntity
8
0
100
AcDbLine
10
188.20742935821815
20
-5.1087673839146861
30
0
11
188.20742935880145
21
6.7482157350550223
31
0
0
LINE
5
266
100
AcDbEntity
8
0
100
AcDbLine
10
215.95225505846946
20
6.9754690508761117
30
0
11
215.95225505846946
21
-4.024530934222593
31
0
0
SPLINE
5
267
100
AcDbEntity
8
0
100
AcDbSpline
70
0
71
3
72
14
73
10
74
0
42
0.000000001
43
0.0000000001
44
0.0000000001
40
0
40
0
40
0
40
0
40
0.3364057153689754
40
0.3364057153689754
40
0.3364057153689754
40
0.74345630742890179
40
0.74345630742890179
40
0.74345630742890179
40
0.89074979504572771
40
0.89074979504572771
40
0.89074979504572771
40
0.89074979504572771
10
173.20811123837819
20
-7.5745309488612378
30
0
10
173.20811123837819
20
-4.6571385408300712
30
0
10
174.02744429116461
20
-1.7957893901303974
30
0
10
175.44531578911864
20
0.59987028371228823
30
0
10
177.16093893801215
20
3.4986161850480886
30
0
10
179.73062680114705
20
5.785049245180276
30
0
10
182.85894730603513
20
7.1450603119066809
30
0
10
183.99094722579048
20
7.6371877700731599
30
0
10
185.19912958256361
20
8.0027698700415826
30
0
10
186.44393337892376
20
8.2248910103970534
30
0
0
SPLINE
5
268
100
AcDbEntity
8
0
100
AcDbSpline
70
0
71
3
72
8
73
4
74
0
42
0.000000001
43
0.0000000001
44
0.0000000001
40
0
40
0
40
0
40
0
40
0.49008341681401058
40
0.49008341681401058
40
0.49008341681401058
40
0.49008341681401058
10
187.20811122347703
20
-7.5745309488612378
30
0
10
187.20811122347703
20
-7.0257211852748203
30
0
10
187.42822857145035
20
-6.5216756967958478
30
0
10
187.78641510892379
20
-6.1507797397054311
30
0
0
ARC
5
269
100
AcDbEntity
8
0
100
AcDbCircle
10
186.70742935821809
20
-5.1087673838408989
30
0
40
1.5000000000000764
210
0
220
0
230
1
100
AcDbArc
50
315.99868308766537
51
360
0
ARC
5
270
100
AcDbEntity
8
0
100
AcDbCircle
10
186.70742935880139
20
6.7482157351288201
30
0
40
1.5000000000000568
210
0
220
0
230
1
100
AcDbArc
50
0
51
100.11730033007045
0
ARC
5
271
100
AcDbEntity
8
0
100
AcDbCircle
10
217.45225505846949
20
6.9754690508761117
30
0
40
1.5000000000000213
210
0
220
-0
230
1
100
AcDbArc
50
90
51
180
0
ARC
5
272
100
AcDbEntity
8
0
100
AcDbCircle
10
217.45225505846952
20
-4.024530934222593
30
0
40
1.5000000000000568
210
0
220
0
230
1
100
AcDbArc
50
180
51
270
0
LINE
5
273
100
AcDbEntity
8
0
100
AcDbLine
10
-11.824999990658638
20
-207.53972529799537
30
0
11
-11.824318110379979
21
-157.08425815976756
31
0
0
SPLINE
5
274
100
AcDbEntity
8
0
100
AcDbSpline
70
0
71
3
72
29
73
25
74
0
42
0.000000001
43
0.0000000001
44
0.0000000001
40
0
40
0
40
0
40
0
40
0.027320149802442455
40
0.027320149802442455
40
0.027320149802442455
40
0.059522516639149967
40
0.059522516639149967
40
0.059522516639149967
40
0.10527737593729736
40
0.10527737593729736
40
0.10527737593729736
40
0.168331931973456
40
0.168331931973456
40
0.168331931973456
40
0.26707039335565425
40
0.26707039335565425
40
0.26707039335565425
40
0.43563300707367403
40
0.43563300707367403
40
0.43563300707367403
40
0.74512891545284599
40
0.74512891545284599
40
0.74512891545284599
40
1
40
1
40
1
40
1
10
160.69747192367515
20
-162.38425147836554
30
0
10
160.69747192367515
20
-160.26184632471652
30
0
10
160.23361304155424
20
-158.17146501822646
30
0
10
159.54027543760361
20
-156.46157602805187
30
0
10
158.7230357070182
20
-154.44612322454168
30
0
10
157.64905653865975
20
-152.9441747225504
30
0
10
156.6577853914518
20
-151.82408672176456
30
0
10
155.24933389169703
20
-150.23260529006188
30
0
10
153.98567835555298
20
-149.33062277290136
30
0
10
152.90252264761426
20
-148.64201924263594
30
0
10
151.40983086952215
20
-147.6930579617611
30
0
10
150.19930139632703
20
-147.16394037244496
30
0
10
149.0654238124915
20
-146.71835553832821
30
0
10
147.28986094976219
20
-146.02060483319752
30
0
10
145.69193008588934
20
-145.57560407621844
30
0
10
144.00654257631521
20
-145.17105861404983
30
0
10
141.12931196359744
20
-144.48043370946533
30
0
10
138.02520838678248
20
-143.95802249331302
30
0
10
134.49726339291604
20
-143.48885357650275
30
0
10
128.01964349545165
20
-142.62741783527497
30
0
10
120.17096984993863
20
-141.98756879495332
30
0
10
111.26886713443376
20
-141.56840402225188
30
0
10
103.93795091737277
20
-141.22322020130295
30
0
10
95.913605662367516
20
-141.03425816002985
30
0
10
87.488353173154906
20
-141.03425816002985
30
0
0
LINE
5
275
100
AcDbEntity
8
0
100
AcDbLine
10
87.488353173154906
20
-141.03425816002985
30
0
11
4.2256818893571335
21
-141.03425816002985
31
0
0
SPLINE
5
276
100
AcDbEntity
8
0
100
AcDbSpline
70
0
71
3
72
14
73
10
74
0
42
0.000000001
43
0.0000000001
44
0.0000000001
40
0
40
0
40
0
40
0
40
0.33640571537030933
40
0.33640571537030933
40
0.33640571537030933
40
0.74345630742915569
40
0.74345630742915569
40
0.74345630742915569
40
1
40
1
40
1
40
1
10
-11.824318110379979
20
-157.08425815976756
30
0
10
-11.824318110379979
20
-154.16686575173006
30
0
10
-11.004985057589192
20
-151.3055166010198
30
0
10
-9.587113559626097
20
-148.90985692717072
30
0
10
-7.8714904107330117
20
-146.01111102584642
30
0
10
-5.3018025476005821
20
-143.72467796571942
30
0
10
-2.1734820427180006
20
-142.36466689899675
30
0
10
-0.20185760702219752
20
-141.50751973399812
30
0
10
2.0008724201931312
20
-141.03425816002985
30
0
10
4.2256818893571211
20
-141.03425816002985
30
0
0
SPLINE
5
277
100
AcDbEntity
8
0
100
AcDbSpline
70
0
71
3
72
14
73
10
74
0
42
0.000000001
43
0.0000000001
44
0.0000000001
40
0
40
0
40
0
40
0
40
0.33640571536837843
40
0.33640571536837843
40
0.33640571536837843
40
0.74345630742687385
40
0.74345630742687385
40
0.74345630742687385
40
1
40
1
40
1
40
1
10
160.69747167763936
20
-238.23723128312406
30
0
10
160.69747167763936
20
-241.23829804240654
30
0
10
159.85536119245822
20
-244.17795044675867
30
0
10
158.39779042022903
20
-246.64068668614743
30
0
10
156.63413118764626
20
-249.62059516727822
30
0
10
153.99163201151143
20
-251.9717538392847
30
0
10
150.77609847534501
20
-253.36968003892639
30
0
10
148.7495080144661
20
-254.25072322175822
30
0
10
146.48609138009601
20
-254.73723128274909
30
0
10
144.19747167801444
20
-254.73723128274909
30
0
0
LINE
5
278
100
AcDbEntity
8
0
100
AcDbLine
10
113.45888989038009
20
-254.73723128114895
30
0
11
144.19747167801444
21
-254.73723128274909
31
0
0
LINE
5
279
100
AcDbEntity
8
0
100
AcDbLine
10
42.126897451447789
20
-269.4591545942335
30
0
11
97.056819857244804
21
-269.4591545942335
31
0
0
LINE
5
280
100
AcDbEntity
8
0
100
AcDbLine
10
-11.807569707879178
20
-208.2575333413179
30
0
11
-11.467791630661736
21
-215.35060047847543
31
0
0
LINE
5
281
100
AcDbEntity
8
0
100
AcDbLine
10
-11.467791630661736
20
-215.35060047847543
30
0
11
-10.582272442180569
21
-222.28497285964528
31
0
0
LINE
5
282
100
AcDbEntity
8
0
100
AcDbLine
10
-10.582272442180569
20
-222.28497285964528
30
0
11
-9.3822451948744625
21
-228.40182407502192
31
0
0
LINE
5
283
100
AcDbEntity
8
0
100
AcDbLine
10
-9.3822451948744625
20
-228.40182407502192
30
0
11
-7.9886558011103332
21
-233.72174349107553
31
0
0
LINE
5
284
100
AcDbEntity
8
0
100
AcDbLine
10
-7.9886558011103332
20
-233.72174349107553
30
0
11
-6.5265769611214122
21
-238.21144498695716
31
0
0
LINE
5
285
100
AcDbEntity
8
0
100
AcDbLine
10
-6.5265769611214122
20
-238.21144498695716
30
0
11
-5.1133343875804362
21
-241.85028029164914
31
0
0
LINE
5
286
100
AcDbEntity
8
0
100
AcDbLine
10
-5.1133343875804362
20
-241.85028029164914
30
0
11
-3.8375261096113071
21
-244.66752866230067
31
0
0
LINE
5
287
100
AcDbEntity
8
0
100
AcDbLine
10
-3.8375261096113071
20
-244.66752866230067
30
0
11
-3.0216386056507116
21
-246.20633044302591
31
0
0
LINE
5
288
100
AcDbEntity
8
0
100
AcDbLine
10
-2.7017805594598698
20
-246.77977207315519
30
0
11
-1.0201039078161522
21
-249.64129902628497
31
0
0
LINE
5
289
100
AcDbEntity
8
0
100
AcDbLine
10
-1.0201039078161522
20
-249.64129902628497
30
0
11
0.66157274382773634
21
-252.50282597941489
31
0
0
LINE
5
290
100
AcDbEntity
8
0
100
AcDbLine
10
0.66157274382773634
20
-252.50282597941489
30
0
11
2.3432493954732574
21
-255.36435293254658
31
0
0
LINE
5
291
100
AcDbEntity
8
0
100
AcDbLine
10
2.3432493954732574
20
-255.36435293254658
30
0
11
4.0249260471176029
21
-258.22587988567631
31
0
0
LINE
5
292
100
AcDbEntity
8
0
100
AcDbLine
10
4.0249260471176029
20
-258.22587988567631
30
0
11
5.7066026987592462
21
-261.08740683880319
31
0
0
LINE
5
293
100
AcDbEntity
8
0
100
AcDbLine
10
5.7066026987592462
20
-261.08740683880319
30
0
11
7.3882793504057309
21
-263.9489337919365
31
0
0
LINE
5
294
100
AcDbEntity
8
0
100
AcDbLine
10
7.3882793504057309
20
-263.9489337919365
30
0
11
9.0699560020493823
21
-266.8104607450656
31
0
0
LINE
5
295
100
AcDbEntity
8
0
100
AcDbLine
10
9.0699560020493823
20
-266.8104607450656
30
0
11
11.315038900933491
21
-270.63067506563101
31
0
0
LINE
5
296
100
AcDbEntity
8
0
100
AcDbLine
10
11.315038900933491
20
-270.63067506563101
30
0
11
13.676215594839288
21
-273.55466362121985
31
0
0
LINE
5
297
100
AcDbEntity
8
0
100
AcDbLine
10
13.676215594839288
20
-273.55466362121985
30
0
11
16.772539870163449
21
-275.50435511283314
31
0
0
LINE
5
298
100
AcDbEntity
8
0
100
AcDbLine
10
16.772539870163449
20
-275.50435511283314
30
0
11
18.661671597220092
21
-276.37194544693682
31
0
0
LINE
5
299
100
AcDbEntity
8
0
100
AcDbLine
10
18.661671597220092
20
-276.37194544693682
30
0
11
21.795933531408629
21
-277.34649922580024
31
0
0
LINE
5
300
100
AcDbEntity
8
0
100
AcDbLine
10
21.795933531408629
20
-277.34649922580024
30
0
11
24.830376730459285
21
-277.37734343435233
31
0
0
LINE
5
301
100
AcDbEntity
8
0
100
AcDbLine
10
24.830376730459285
20
-277.37734343435233
30
0
11
27.375706051625201
21
-277.15839037448279
31
0
0
LINE
5
302
100
AcDbEntity
8
0
100
AcDbLine
10
27.375706051625201
20
-277.15839037448279
30
0
11
30.49877651754851
21
-276.14805009166196
31
0
0
LINE
5
303
100
AcDbEntity
8
0
100
AcDbLine
10
30.49877651754851
20
-276.14805009166196
30
0
11
31.938705905024634
21
-275.35384714800284
31
0
0
LINE
5
304
100
AcDbEntity
8
0
100
AcDbLine
10
32.209774202589564
20
-275.20064700146713
30
0
11
33.885468646615081
21
-274.23050811282081
31
0
0
LINE
5
305
100
AcDbEntity
8
0
100
AcDbLine
10
33.885468646615081
20
-274.23050811282081
30
0
11
35.561163090640584
21
-273.2603692241745
31
0
0
LINE
5
306
100
AcDbEntity
8
0
100
AcDbLine
10
35.561163090640584
20
-273.2603692241745
30
0
11
37.236857534666896
21
-272.29023033552761
31
0
0
LINE
5
307
100
AcDbEntity
8
0
100
AcDbLine
10
37.236857534666896
20
-272.29023033552761
30
0
11
38.912551978691667
21
-271.32009144688175
31
0
0
LINE
5
308
100
AcDbEntity
8
0
100
AcDbLine
10
38.912551978691667
20
-271.32009144688175
30
0
11
40.588246422717575
21
-270.34995255823515
31
0
0
LINE
5
309
100
AcDbEntity
8
0
100
AcDbLine
10
40.588246422717575
20
-270.34995255823515
30
0
11
42.126897451447789
21
-269.4591545942335
31
0
0
LINE
5
310
100
AcDbEntity
8
0
100
AcDbLine
10
32.209774202589564
20
-275.20064700146713
30
0
11
31.938705905024634
21
-275.35384714800284
31
0
0
LINE
5
311
100
AcDbEntity
8
0
100
AcDbLine
10
-3.0216386056507116
20
-246.20633044302591
30
0
11
-2.7017805594598698
21
-246.77977207315519
31
0
0
LINE
5
312
100
AcDbEntity
8
0
100
AcDbLine
10
-11.824999990658638
20
-207.53972529799537
30
0
11
-11.807569707879178
21
-208.2575333413179
31
0
0
SPLINE
5
313
100
AcDbEntity
8
0
100
AcDbSpline
70
0
71
3
72
14
73
10
74
0
42
0.000000001
43
0.0000000001
44
0.0000000001
40
0.066831490777098573
40
0.066831490777098573
40
0.066831490777098573
40
0.066831490777098573
40
0.33640571536843766
40
0.33640571536843766
40
0.33640571536843766
40
0.74345630742926017
40
0.74345630742926017
40
0.74345630742926017
40
1
40
1
40
1
40
1
10
113.45888989038009
20
-254.73723128114895
30
0
10
113.19793640242757
20
-257.10940130664886
30
0
10
112.42514346013965
20
-259.38912922195817
30
0
10
111.25713859945861
20
-261.36260999763363
30
0
10
109.49347936686368
20
-264.34251847878437
30
0
10
106.85098019070303
20
-266.69367715080216
30
0
10
103.63544665451279
20
-268.09160335043822
30
0
10
101.60885619364932
20
-268.97264653325328
30
0
10
99.345439559300871
20
-269.4591545942335
30
0
10
97.056819857244804
20
-269.4591545942335
30
0
0
CIRCLE
5
314
100
AcDbEntity
8
0
100
AcDbCircle
10
182.20742935894972
20
-2.02406594912385
30
0
40
1.6250000000000049
210
0
220
0
230
1
0
CIRCLE
5
315
100
AcDbEntity
8
0
100
AcDbCircle
10
207.20567415846946
20
-120.0494273833275
30
0
40
1.6250000000000027
210
0
220
0
230
1
0
CIRCLE
5
316
100
AcDbEntity
8
0
100
AcDbCircle
10
289.49131923913808
20
-110.22750407057087
30
0
40
1.6250000000000029
210
0
220
0
230
1
0
CIRCLE
5
317
100
AcDbEntity
8
0
100
AcDbCircle
10
336.15990128256828
20
-95.657504071843107
30
0
40
1.6249999999999765
210
0
220
0
230
1
0
CIRCLE
5
318
100
AcDbEntity
8
0
100
AcDbCircle
10
336.22990128256822
20
-7.0245309491238501
30
0
40
1.6249999999999696
210
0
220
0
230
1
0
CIRCLE
5
319
100
AcDbEntity
8
0
100
AcDbCircle
10
-2.8249983173124642
20
1.324999990404006
30
0
40
1.125
210
0
220
0
230
1
0
CIRCLE
5
320
100
AcDbEntity
8
0
100
AcDbCircle
10
22.127178480588597
20
-116.70880517611732
30
0
40
1.1250000000000009
210
0
220
0
230
1
0
CIRCLE
5
321
100
AcDbEntity
8
0
100
AcDbCircle
10
104.45888988702323
20
-106.87797306475332
30
0
40
1.1249999999999971
210
0
220
0
230
1
0
CIRCLE
5
322
100
AcDbEntity
8
0
100
AcDbCircle
10
151.12747192367462
20
-92.307973063956126
30
0
40
1.1250000000000007
210
0
220
0
230
1
0
CIRCLE
5
323
100
AcDbEntity
8
0
100
AcDbCircle
10
151.19747192367464
20
-3.674999991877085
30
0
40
1.1249999999999918
210
0
220
0
230
1
0
CIRCLE
5
324
100
AcDbEntity
8
0
100
AcDbCircle
10
-2.8249999906586378
20
-151.53425816002988
30
0
40
1.125
210
0
220
0
230
1
0
CIRCLE
5
325
100
AcDbEntity
8
0
100
AcDbCircle
10
22.173244809341366
20
-269.55915459423346
30
0
40
1.1250000000000029
210
0
220
0
230
1
0
CIRCLE
5
326
100
AcDbEntity
8
0
100
AcDbCircle
10
104.45888989038009
20
-259.73723128144405
30
0
40
1.1249999999999973
210
0
220
0
230
1
0
CIRCLE
5
327
100
AcDbEntity
8
0
100
AcDbCircle
10
151.12747167763933
20
-245.16723128050609
30
0
40
1.1249999999999933
210
0
220
0
230
1
0
CIRCLE
5
328
100
AcDbEntity
8
0
100
AcDbCircle
10
151.19747193381014
20
-156.53425816002988
30
0
40
1.124999999999992
210
0
220
0
230
1
0
ARC
5
329
100
AcDbEntity
8
0
100
AcDbCircle
10
32.42650141031816
20
10.324715013523116
30
0
40
1.5000018068471599
210
0
220
-0
230
1
100
AcDbArc
50
90
51
180
0
CIRCLE
5
330
100
AcDbEntity
8
0
100
AcDbCircle
10
222.95225505846946
20
1.4754690508762167
30
0
40
1.625
210
0
220
0
230
1
0
CIRCLE
5
331
100
AcDbEntity
8
0
100
AcDbCircle
10
37.926501411074511
20
4.8247168203702904
30
0
40
1.125000000000002
210
0
220
0
230
1
0
CIRCLE
5
332
100
AcDbEntity
8
0
100
AcDbCircle
10
37.919825709341367
20
-148.03425816002985
30
0
40
1.125
210
0
220
0
230
1
0
LWPOLYLINE
5
333
100
AcDbEntity
8
0
100
AcDbPolyline
90
8
70
1
43
0.0
10
236.88656498178312
20
-18.016437266795869
10
213.64173928178315
20
-18.016437266795869
42
0.41421356237308343
10
211.39173928178312
20
-20.266437266795858
10
211.39173928178315
20
-81.02438876679588
42
0.41421356237308582
10
213.64173928178315
20
-83.27438876679588
10
236.88656498178312
20
-83.274388766795909
42
0.41421356237309503
10
239.13656498178312
20
-81.02438876679588
10
239.13656498178315
20
-20.266437266795872
42
0.41421356237309903
0
CIRCLE
5
334
100
AcDbEntity
8
0
100
AcDbCircle
10
214.73477418178311
20
-80.860128066795909
30
0
40
1.1738876500000002
210
0
220
0
230
1
0
CIRCLE
5
335
100
AcDbEntity
8
0
100
AcDbCircle
10
236.73455398178316
20
-80.85995316679589
30
0
40
1.1738876500000002
210
0
220
0
230
1
0
LWPOLYLINE
5
336
100
AcDbEntity
8
0
100
AcDbPolyline
90
8
70
1
43
0.0
10
248.64173928178315
20
-83.274388766795866
42
-0.41421356237308582
10
246.39173928178315
20
-81.02438876679588
10
246.39173928178312
20
-20.266437266795858
42
-0.41421356237308343
10
248.64173928178315
20
-18.016437266795869
10
271.88656498178312
20
-18.016437266795862
42
-0.41421356237309903
10
274.13656498178318
20
-20.266437266795876
10
274.13656498178312
20
-81.02438876679588
42
-0.41421356237309503
10
271.88656498178312
20
-83.274388766795909
0
CIRCLE
5
337
100
AcDbEntity
8
0
100
AcDbCircle
10
249.73477418178311
20
-80.860128066795909
30
0
40
1.1738876500000002
210
0
220
0
230
1
0
CIRCLE
5
338
100
AcDbEntity
8
0
100
AcDbCircle
10
271.73455398178316
20
-80.85995316679589
30
0
40
1.1738876500000002
210
0
220
0
230
1
0
LWPOLYLINE
5
339
100
AcDbEntity
8
0
100
AcDbPolyline
90
8
70
1
43
0.0
10
283.64173928178315
20
-83.274388766795866
42
-0.41421356237308582
10
281.39173928178315
20
-81.02438876679588
10
281.39173928178315
20
-20.266437266795858
42
-0.41421356237308343
10
283.64173928178315
20
-18.016437266795869
10
306.88656498178312
20
-18.016437266795862
42
-0.41421356237309903
10
309.13656498178318
20
-20.266437266795876
10
309.13656498178312
20
-81.02438876679588
42
-0.41421356237309503
10
306.88656498178312
20
-83.274388766795909
0
CIRCLE
5
340
100
AcDbEntity
8
0
100
AcDbCircle
10
284.73477418178311
20
-80.860128066795909
30
0
40
1.1738876500000002
210
0
220
0
230
1
0
CIRCLE
5
341
100
AcDbEntity
8
0
100
AcDbCircle
10
306.73455398178316
20
-80.85995316679589
30
0
40
1.1738876500000002
210
0
220
0
230
1
0
LWPOLYLINE
5
342
100
AcDbEntity
8
0
100
AcDbPolyline
90
8
70
1
43
0.0
10
213.64173928178315
20
-83.274388766795866
42
-0.41421356237308582
10
211.39173928178315
20
-81.02438876679588
10
211.39173928178312
20
-20.266437266795858
42
-0.41421356237308343
10
213.64173928178315
20
-18.016437266795869
10
236.88656498178312
20
-18.016437266795862
42
-0.41421356237309903
10
239.13656498178315
20
-20.266437266795876
10
239.13656498178312
20
-81.02438876679588
42
-0.41421356237309503
10
236.88656498178312
20
-83.274388766795909
0
CIRCLE
5
343
100
AcDbEntity
8
0
100
AcDbCircle
10
214.73477418178311
20
-80.860128066795909
30
0
40
1.1738876500000002
210
0
220
0
230
1
0
CIRCLE
5
344
100
AcDbEntity
8
0
100
AcDbCircle
10
236.73455398178316
20
-80.85995316679589
30
0
40
1.1738876500000002
210
0
220
0
230
1
0
LINE
5
345
100
AcDbEntity
8
0
100
AcDbLine
10
-11.824979563329672
20
-5.0807232746235957
30
0
11
-11.824979563329999
21
-51.233376776456851
31
0
0
LINE
5
346
100
AcDbEntity
8
0
100
AcDbLine
10
160.69747167763936
20
-238.23723128312406
30
0
11
160.69747192367515
21
-162.38425147836554
31
0
0
LINE
5
347
100
AcDbEntity
8
0
100
AcDbLine
10
187.20924577803811
20
-58.086041470764968
30
0
11
187.20811122347703
21
-7.5745309488612378
31
0
0
LINE
5
348
100
AcDbEntity
8
0
100
AcDbLine
10
3.1750028756244957
20
-5.0771798583590773
30
0
11
3.1749999982553527
21
-51.233374934407969
31
0
0
LINE
5
349
100
AcDbEntity
8
0
100
AcDbLine
10
32.42650141031816
20
11.824716820370275
30
0
11
87.488353252784762
21
11.825000692689876
31
0
0
LINE
5
350
100
AcDbEntity
8
0
100
AcDbLine
10
30.926501411074511
20
10.324715013523116
30
0
11
30.91997618527186
21
-51.232884834849173
31
0
0
LINE
5
351
100
AcDbEntity
8
0
100
AcDbLine
10
28.720368265196381
20
-53.432884834101372
30
0
11
5.375248736638901
21
-53.432786813837154
31
0
0
ENDSEC
0
SECTION
2
OBJECTS
0
DICTIONARY
5
C
100
AcDbDictionary
3
ACAD_GROUP
350
D
3
ACAD_MLINESTYLE
350
17
0
DICTIONARY
5
D
100
AcDbDictionary
0
DICTIONARY
5
1A
330
C
100
AcDbDictionary
0
DICTIONARY
5
17
100
AcDbDictionary
0
ENDSEC
0
EOF
